<svg width="156" height="25" viewBox="0 0 156 25" fill="none" xmlns="http://www.w3.org/2000/svg">
<g clip-path="url(#clip0_864_3133)">
<path d="M11.05 0.0687256L0.75 20.2687H5.55L15.85 0.0687256H11.05ZM70.25 8.16873L69.45 9.76873C69.15 9.16873 68.55 8.56873 67.95 8.26873C67.25 7.96873 66.55 7.86873 65.85 7.86873C65.05 7.86873 64.35 8.06873 63.65 8.36873C63.05 8.66873 62.45 9.16873 62.05 9.66873C61.65 10.2687 61.25 10.8687 61.05 11.5687C60.85 12.2687 60.75 13.0687 60.75 13.8687C60.75 14.6687 60.85 15.4687 61.05 16.1687C61.25 16.8687 61.55 17.5687 61.95 18.0687C62.35 18.6687 62.95 19.0687 63.55 19.3687C64.25 19.6687 65.05 19.8687 65.85 19.8687C66.55 19.8687 67.25 19.6687 67.95 19.3687C68.65 19.0687 69.15 18.5687 69.45 17.9687V19.5687C69.45 21.4687 68.55 22.5687 66.85 22.5687C65.05 22.5687 64.15 21.7687 63.65 21.1687L62.45 23.5687C62.45 23.5687 63.85 24.7687 66.35 24.7687C70.65 24.7687 72.65 22.6687 72.65 19.4687V8.16873C72.55 8.16873 70.25 8.16873 70.25 8.16873ZM69.25 15.2687C69.15 15.6687 68.95 15.9687 68.75 16.3687C68.55 16.6687 68.25 16.9687 67.85 17.1687C67.45 17.3687 67.05 17.4687 66.65 17.4687C66.15 17.4687 65.75 17.3687 65.35 17.1687C65.05 16.9687 64.75 16.6687 64.55 16.3687C64.35 15.9687 64.15 15.6687 64.15 15.1687C64.05 14.7687 64.05 14.2687 64.05 13.8687C64.05 13.4687 64.15 12.9687 64.25 12.5687C64.35 12.1687 64.55 11.7687 64.75 11.4687C64.95 11.1687 65.25 10.8687 65.55 10.6687C65.95 10.4687 66.35 10.3687 66.75 10.3687C67.25 10.3687 67.65 10.4687 68.15 10.6687C68.45 10.8687 68.75 11.1687 69.05 11.4687C69.25 11.8687 69.45 12.2687 69.55 12.6687C69.65 13.1687 69.65 13.5687 69.65 14.0687C69.35 14.4687 69.35 14.8687 69.25 15.2687ZM25.85 3.56873V9.86873H25.95C26.35 9.16873 26.85 8.66873 27.55 8.36873C28.15 8.06873 28.75 7.86873 29.45 7.86873C30.15 7.86873 30.95 7.96873 31.65 8.26873C32.15 8.46873 32.65 8.86873 32.95 9.26873C33.25 9.76873 33.55 10.2687 33.65 10.8687C33.75 11.5687 33.85 12.2687 33.85 12.8687V20.2687H30.55V13.3687C30.65 12.5687 30.45 11.8687 30.05 11.1687C29.75 10.6687 29.15 10.3687 28.35 10.3687C27.45 10.3687 26.75 10.6687 26.35 11.1687C25.95 11.6687 25.75 12.5687 25.75 13.7687V20.1687H22.45V3.56873H25.85ZM35.35 11.5687C35.65 10.7687 36.05 10.1687 36.65 9.56873C37.25 8.96873 37.85 8.56873 38.65 8.26873C40.35 7.66873 42.15 7.66873 43.85 8.26873C45.35 8.86873 46.55 10.0687 47.05 11.5687C47.35 12.3687 47.55 13.2687 47.45 14.1687C47.45 15.0687 47.35 15.9687 47.05 16.7687C46.75 17.4687 46.35 18.1687 45.75 18.7687C45.15 19.3687 44.55 19.7687 43.75 20.0687C42.05 20.6687 40.25 20.6687 38.55 20.0687C37.85 19.7687 37.15 19.3687 36.55 18.7687C35.95 18.1687 35.55 17.4687 35.25 16.7687C34.95 15.9687 34.75 15.0687 34.85 14.1687C34.85 13.2687 35.05 12.4687 35.35 11.5687ZM38.35 15.6687C38.45 16.0687 38.55 16.5687 38.85 16.8687C39.05 17.2687 39.35 17.5687 39.75 17.7687C40.15 17.9687 40.65 18.0687 41.15 18.0687C41.65 18.0687 42.15 17.9687 42.55 17.7687C42.95 17.5687 43.25 17.2687 43.45 16.8687C43.65 16.4687 43.85 16.0687 43.95 15.6687C44.05 15.1687 44.05 14.7687 44.05 14.2687C44.05 13.7687 44.05 13.2687 43.95 12.8687C43.85 12.4687 43.75 11.9687 43.45 11.6687C43.25 11.2687 42.95 10.9687 42.55 10.7687C42.15 10.5687 41.65 10.3687 41.15 10.4687C40.25 10.4687 39.35 10.8687 38.85 11.6687C38.65 12.0687 38.45 12.4687 38.35 12.8687C38.15 13.6687 38.15 14.6687 38.35 15.6687ZM56.45 20.2687V18.5687H56.35C55.95 19.2687 55.35 19.7687 54.75 20.0687C54.15 20.3687 53.45 20.5687 52.65 20.5687C51.95 20.5687 51.15 20.4687 50.45 20.2687C49.95 20.0687 49.45 19.7687 49.15 19.2687C48.85 18.7687 48.55 18.2687 48.45 17.6687C48.35 16.9687 48.25 16.2687 48.25 15.6687V8.16873H51.55V14.9687C51.45 15.7687 51.65 16.4687 52.05 17.1687C52.35 17.6687 52.95 17.8687 53.75 17.9687C54.65 17.9687 55.35 17.6687 55.75 17.1687C56.15 16.6687 56.35 15.7687 56.35 14.5687V8.16873H59.65V20.2687H56.45ZM77.15 3.56873V9.86873H77.25C77.65 9.16873 78.15 8.66873 78.85 8.36873C79.45 8.06873 80.05 7.86873 80.75 7.86873C81.45 7.86873 82.25 7.96873 82.95 8.26873C83.45 8.46873 83.95 8.76873 84.35 9.26873C84.65 9.76873 84.95 10.2687 85.05 10.8687C85.15 11.5687 85.25 12.2687 85.25 12.8687V20.2687H81.95V13.4687C81.95 12.6687 81.85 11.9687 81.45 11.2687C81.15 10.7687 80.55 10.4687 79.75 10.4687C78.85 10.4687 78.15 10.7687 77.75 11.2687C77.35 11.7687 77.15 12.6687 77.15 13.8687V20.2687H73.85V3.56873H77.15ZM110.55 11.5687C111.05 10.0687 112.25 8.86873 113.75 8.26873C115.45 7.66873 117.25 7.66873 118.95 8.26873C120.45 8.86873 121.65 10.0687 122.15 11.5687C122.45 12.3687 122.65 13.2687 122.55 14.1687C122.55 15.0687 122.45 15.9687 122.15 16.7687C121.85 17.4687 121.45 18.1687 120.85 18.7687C120.25 19.3687 119.65 19.7687 118.85 19.9687C117.15 20.5687 115.35 20.5687 113.65 19.9687C112.95 19.6687 112.25 19.2687 111.65 18.6687C111.05 18.0687 110.65 17.3687 110.35 16.6687C110.05 15.8687 109.85 14.9687 109.95 14.0687C110.05 13.2687 110.25 12.4687 110.55 11.5687ZM113.55 15.6687C113.65 16.0687 113.75 16.5687 114.05 16.8687C114.25 17.2687 114.55 17.5687 114.95 17.7687C115.35 17.9687 115.85 18.0687 116.35 18.0687C116.85 18.0687 117.35 17.9687 117.75 17.7687C118.15 17.5687 118.45 17.2687 118.65 16.8687C118.85 16.4687 119.05 16.0687 119.15 15.6687C119.25 15.1687 119.25 14.7687 119.25 14.2687C119.25 13.7687 119.25 13.2687 119.15 12.8687C119.05 12.4687 118.95 11.9687 118.65 11.6687C118.45 11.2687 118.15 10.9687 117.75 10.7687C117.35 10.5687 116.85 10.3687 116.35 10.4687C115.85 10.4687 115.35 10.5687 114.95 10.7687C114.55 10.9687 114.25 11.2687 114.05 11.6687C113.85 12.0687 113.65 12.4687 113.55 12.8687C113.45 13.3687 113.45 13.8687 113.45 14.2687C113.45 14.6687 113.45 15.1687 113.55 15.6687ZM136.35 3.56873V12.5687L140.55 8.16873H144.45L139.85 12.5687L144.95 20.2687H140.95L137.65 14.8687L136.35 16.0687V20.2687H133.05V3.56873H136.35Z" fill="white"/>
<path d="M147.45 17.2687C147.55 17.4687 147.75 17.7687 148.05 17.8687C148.25 18.0687 148.55 18.1687 148.85 18.2687C149.15 18.3687 149.45 18.3687 149.75 18.3687C149.95 18.3687 150.25 18.3687 150.45 18.2687C150.65 18.2687 150.95 18.1687 151.15 17.9687C151.35 17.8687 151.55 17.6687 151.65 17.4687C151.85 17.2687 151.85 16.9687 151.85 16.6687C151.85 16.1687 151.55 15.7687 150.85 15.5687C149.95 15.2687 149.05 14.9687 148.05 14.7687C147.55 14.6687 147.05 14.5687 146.65 14.3687C146.25 14.2687 145.75 14.0687 145.45 13.7687C145.05 13.5687 144.75 13.2687 144.55 12.8687C144.35 12.4687 144.25 11.9687 144.25 11.5687C144.25 10.8687 144.35 10.2687 144.75 9.66873C145.05 9.16873 145.45 8.76873 145.95 8.46873C146.45 8.16873 147.05 7.96873 147.65 7.86873C148.25 7.76873 148.95 7.66873 149.55 7.66873C150.15 7.66873 150.85 7.76873 151.45 7.86873C152.05 7.96873 152.55 8.16873 153.15 8.46873C153.65 8.76873 154.05 9.16873 154.35 9.66873C154.65 10.2687 154.85 10.8687 154.95 11.5687H151.75C151.75 11.0687 151.45 10.5687 151.05 10.2687C150.55 10.0687 150.05 9.86873 149.55 9.96873C149.35 9.96873 149.15 9.96873 148.95 9.96873C148.75 9.96873 148.55 10.0687 148.35 10.1687C148.15 10.2687 148.05 10.3687 147.85 10.4687C147.75 10.6687 147.65 10.8687 147.65 11.0687C147.65 11.3687 147.75 11.5687 147.95 11.7687C148.25 11.9687 148.45 12.1687 148.85 12.2687C149.25 12.3687 149.65 12.4687 150.05 12.5687C150.55 12.6687 150.95 12.7687 151.45 12.8687C151.95 12.9687 152.45 13.0687 152.85 13.2687C153.25 13.3687 153.75 13.6687 154.05 13.8687C154.45 14.1687 154.75 14.4687 154.95 14.8687C155.15 15.2687 155.25 15.7687 155.25 16.2687C155.35 17.5687 154.65 18.8687 153.55 19.5687C153.05 19.8687 152.45 20.1687 151.75 20.2687C151.05 20.3687 150.45 20.4687 149.75 20.4687C149.05 20.4687 148.35 20.3687 147.65 20.2687C147.05 20.1687 146.45 19.8687 145.85 19.5687C144.65 18.8687 143.95 17.5687 144.05 16.2687H147.25C147.15 16.6687 147.25 16.9687 147.45 17.2687ZM92.1502 17.7687C91.7502 17.7687 91.3502 17.6687 91.0502 17.4687C90.8502 17.1687 90.7502 16.7687 90.7502 16.3687V10.3687H92.6502L93.7502 8.16873H90.7502V4.56873H87.4502V8.16873H85.7502L84.6502 10.3687H87.4502V17.4687C87.4502 17.9687 87.5502 18.4687 87.7502 18.9687C87.9502 19.3687 88.2502 19.6687 88.5502 19.8687C88.9502 20.0687 89.3502 20.1687 89.7502 20.2687C90.2502 20.3687 90.7502 20.3687 91.2502 20.3687C91.5502 20.3687 91.9502 20.3687 92.2502 20.3687C92.5502 20.3687 92.8502 20.3687 93.1502 20.2687V17.6687C92.9502 17.6687 92.8502 17.7687 92.6502 17.7687C92.5502 17.7687 92.3502 17.7687 92.1502 17.7687ZM20.5502 17.7687C20.1502 17.7687 19.7502 17.6687 19.4502 17.4687C19.2502 17.1687 19.1502 16.7687 19.1502 16.3687V10.3687H20.8502L21.9502 8.16873H19.1502V4.56873H15.7502V8.16873H14.0502L12.9502 10.3687H15.7502V17.4687C15.7502 17.9687 15.8502 18.4687 16.0502 18.9687C16.2502 19.3687 16.5502 19.6687 16.8502 19.8687C17.2502 20.0687 17.6502 20.1687 18.0502 20.2687C18.5502 20.3687 19.0502 20.3687 19.5502 20.3687C19.8502 20.3687 20.2502 20.3687 20.5502 20.3687C20.8502 20.3687 21.1502 20.3687 21.4502 20.2687V17.6687C21.2502 17.6687 21.1502 17.7687 20.9502 17.7687C20.8502 17.7687 20.6502 17.7687 20.5502 17.7687ZM130.45 7.86873C127.65 7.86873 126.55 10.4687 126.55 10.4687V8.16873H123.35V20.2687H126.65V15.1687C126.65 12.2687 127.25 10.8687 129.75 10.8687C130.25 10.8687 130.65 10.9687 131.05 11.1687L132.45 8.36873C131.85 8.06873 131.15 7.86873 130.45 7.86873Z" fill="white"/>
<path d="M107.25 8.1687L105.05 16.3687L102.95 8.1687H99.7496L97.7496 16.3687L95.5496 8.1687L93.3496 12.3687L95.8496 20.2687H99.2496L101.35 12.1687L103.55 20.2687H106.95L110.75 8.1687H107.25Z" fill="white"/>
</g>
<defs>
<clipPath id="clip0_864_3133">
<rect width="154.5" height="24.8" fill="white" transform="translate(0.75 0.0687256)"/>
</clipPath>
</defs>
</svg>
