<svg width="177" height="21" viewBox="0 0 177 21" fill="none" xmlns="http://www.w3.org/2000/svg">
<g clip-path="url(#clip0_864_3149)">
<path d="M2.231 14.6757V10.0537H4.987C5.70103 9.96606 6.42338 10.1286 7.031 10.5137C7.31005 10.7573 7.5337 11.0578 7.68687 11.395C7.84004 11.7322 7.9192 12.0984 7.919 12.4687C7.92716 12.7901 7.86207 13.1091 7.72866 13.4015C7.59526 13.694 7.39703 13.9523 7.149 14.1567C6.57242 14.5406 5.88507 14.7231 5.194 14.6757H2.231ZM2.231 8.91374V4.80874H4.957C5.5472 4.75644 6.14059 4.86386 6.675 5.11974C6.96743 5.28898 7.20606 5.53744 7.36336 5.83647C7.52065 6.13549 7.59021 6.47289 7.564 6.80974C7.56878 7.12639 7.50202 7.44004 7.3687 7.72729C7.23537 8.01454 7.03892 8.26799 6.794 8.46874C6.12152 8.85558 5.34279 9.01679 4.572 8.92874L2.232 8.91374H2.231ZM5.194 15.8757C6.24395 15.9813 7.2965 15.7019 8.156 15.0897C8.54151 14.7872 8.84892 14.3967 9.05248 13.951C9.25605 13.5052 9.34984 13.0172 9.326 12.5277C9.33936 11.7959 9.09418 11.0829 8.63361 10.514C8.17303 9.94514 7.52658 9.55695 6.808 9.41774C7.45812 9.30951 8.0456 8.96561 8.45824 8.4517C8.87087 7.93779 9.07976 7.2899 9.045 6.63174C9.04953 6.15565 8.93387 5.68611 8.70873 5.2666C8.48359 4.84708 8.15624 4.49115 7.757 4.23174C6.9868 3.76996 6.08676 3.5726 5.194 3.66974H0.75V15.8757H5.194ZM12.304 11.2687C12.2879 10.49 12.4393 9.71687 12.748 9.00174C12.9368 8.61197 13.2314 8.28312 13.5981 8.05273C13.9648 7.82233 14.3889 7.69967 14.822 7.69874C15.2162 7.70205 15.6035 7.8024 15.9497 7.99094C16.2959 8.17948 16.5904 8.45039 16.807 8.77974C17.225 9.53974 17.425 10.4017 17.385 11.2687C17.4181 12.0726 17.2659 12.8732 16.94 13.6087C16.7567 13.9887 16.4735 14.3116 16.1207 14.543C15.768 14.7743 15.359 14.9054 14.9374 14.9221C14.5159 14.9389 14.0978 14.8407 13.7278 14.638C13.3578 14.4354 13.0499 14.1359 12.837 13.7717C12.4529 12.9951 12.2697 12.1345 12.304 11.2687ZM10.823 11.2687C10.823 13.6537 12.037 16.0387 14.748 16.0387C17.458 16.0387 18.94 13.8167 18.94 11.2987C18.94 8.77974 17.622 6.60274 14.97 6.60274C12.319 6.60274 10.778 8.76474 10.778 11.2687H10.823ZM21.77 11.2687C21.739 10.4887 21.891 9.71274 22.214 9.00174C22.4014 8.61086 22.6956 8.28103 23.0626 8.05043C23.4297 7.81983 23.8545 7.6979 24.288 7.69874C24.6804 7.70052 25.0662 7.80034 25.4102 7.98913C25.7543 8.17791 26.0457 8.44969 26.258 8.77974C26.683 9.53774 26.883 10.4007 26.835 11.2687C26.8835 12.0735 26.7309 12.8777 26.391 13.6087C26.1252 14.1641 25.65 14.5914 25.0696 14.7969C24.4892 15.0024 23.851 14.9692 23.295 14.7047C22.8771 14.4963 22.5277 14.1725 22.288 13.7717C21.9168 12.9911 21.7388 12.1326 21.769 11.2687H21.77ZM20.288 11.2687C20.288 13.6537 21.503 16.0387 24.198 16.0387C26.895 16.0387 28.391 13.8167 28.391 11.2987C28.391 8.77974 27.043 6.60274 24.451 6.60274C21.858 6.60274 20.244 8.76474 20.244 11.2687H20.288ZM35.872 7.59474L30.895 14.7787H35.872V15.8757H29.206V14.7787L34.02 7.93574H29.576V6.82474H35.872V7.59474ZM44.892 19.8747H43.708V1.06274H44.848L44.892 19.8747ZM58.52 11.1497H54.728L56.61 5.29974L58.52 11.1497ZM57.587 3.74374H55.884L51.929 15.8757H53.217L54.299 12.3207H58.817L60.002 15.8757H61.483L57.587 3.74374ZM71.852 10.4247C71.847 9.71759 72.1157 9.03591 72.6018 8.52227C73.0878 8.00862 73.7537 7.70279 74.46 7.66874C75.1216 7.66847 75.7564 7.93014 76.2256 8.39655C76.6948 8.86296 76.9603 9.49616 76.964 10.1577C76.972 10.2467 76.972 10.3357 76.964 10.4247H71.854H71.852ZM76.978 13.1647C76.8106 13.679 76.4829 14.1262 76.0429 14.4408C75.6029 14.7553 75.0738 14.9207 74.533 14.9127C74.0466 14.9096 73.5698 14.7778 73.1509 14.5307C72.732 14.2835 72.386 13.9299 72.148 13.5057C71.8855 12.8479 71.784 12.1368 71.852 11.4317H78.488C78.488 8.92874 77.348 6.57274 74.533 6.57274C73.3883 6.60751 72.304 7.09491 71.5182 7.92802C70.7323 8.76112 70.309 9.87192 70.341 11.0167C70.338 11.1557 70.348 11.2947 70.371 11.4317C70.371 13.9647 71.778 16.1277 74.519 16.1277C75.3574 16.1516 76.1816 15.9072 76.8715 15.4302C77.5614 14.9532 78.0811 14.2685 78.355 13.4757L76.978 13.1647ZM81.762 8.36474C82.0167 7.83521 82.4162 7.38866 82.9142 7.07682C83.4122 6.76498 83.9884 6.60061 84.576 6.60274C85.0958 6.59175 85.6085 6.72414 86.058 6.98539C86.5075 7.24664 86.8763 7.62666 87.124 8.08374C87.506 8.98574 87.659 9.96774 87.569 10.9427V15.8757H86.22V10.2907C86.2741 9.71914 86.1822 9.14317 85.953 8.61674C85.7911 8.36946 85.572 8.16489 85.3141 8.02039C85.0563 7.8759 84.7674 7.79575 84.472 7.78674C84.1121 7.79224 83.7579 7.87763 83.435 8.03673C83.1121 8.19584 82.8286 8.42469 82.605 8.70674C82.086 9.40533 81.8341 10.2666 81.895 11.1347V15.8747H80.443V6.82474H81.761L81.762 8.36474ZM165.07 8.36474C165.322 7.83654 165.719 7.39067 166.215 7.07882C166.71 6.76696 167.284 6.60189 167.869 6.60274C168.393 6.58956 168.911 6.72073 169.366 6.98193C169.82 7.24312 170.194 7.62428 170.447 8.08374C170.818 8.98874 170.965 9.96874 170.876 10.9427V15.8757H169.395V10.2907C169.452 9.7218 169.371 9.14746 169.158 8.61674C168.986 8.36197 168.755 8.15313 168.484 8.00844C168.213 7.86376 167.91 7.78765 167.603 7.78674C167.243 7.79231 166.889 7.87773 166.566 8.03683C166.243 8.19593 165.96 8.42474 165.736 8.70674C165.269 9.42502 165.07 10.2844 165.173 11.1347V15.8747H163.692V6.82474H165.025L165.07 8.36474ZM96.723 19.8747H95.553V1.06274H96.679L96.723 19.8747ZM112.484 15.8757V9.95074H106.825V15.8757H105.344V3.66874H106.825V8.83874H112.484V3.66874H113.965V15.8747L112.484 15.8757ZM122.038 11.9057C122.063 12.6768 121.786 13.4272 121.266 13.9971C120.746 14.5669 120.024 14.9113 119.254 14.9567C118.098 14.9567 117.298 14.4967 117.298 13.3717C117.298 11.5057 119.268 11.3127 120.927 11.3127H122.053L122.038 11.9057ZM120.898 10.2607C119.742 10.1997 118.587 10.3816 117.506 10.7947C116.879 11.0467 116.367 11.5217 116.069 12.1284C115.772 12.7351 115.709 13.4305 115.893 14.0807C116.076 14.7313 116.494 15.2911 117.065 15.6524C117.636 16.0137 118.321 16.1509 118.987 16.0377C119.632 16.0811 120.275 15.9254 120.829 15.5917C121.382 15.258 121.82 14.7624 122.083 14.1717L122.216 15.8757H123.564C123.412 15.2558 123.347 14.6176 123.372 13.9797V10.4537C123.507 9.41015 123.248 8.35369 122.646 7.49074C122.28 7.15364 121.846 6.89972 121.373 6.74643C120.9 6.59314 120.399 6.54412 119.905 6.60274C118.306 6.60274 116.365 7.19474 116.098 9.07574L117.387 9.28374C117.639 8.03874 118.691 7.68374 119.802 7.68374C121.387 7.68374 122.053 8.29074 122.053 9.87574V10.2607H120.898ZM127.03 6.82474V8.46874C127.265 7.93636 127.645 7.48127 128.127 7.15617C128.61 6.83107 129.175 6.64924 129.756 6.63174C130.345 6.62469 130.918 6.81702 131.384 7.17743C131.849 7.53784 132.179 8.04513 132.319 8.61674C132.548 8.01904 132.955 7.50578 133.485 7.1458C134.014 6.78582 134.641 6.59633 135.281 6.60274C135.739 6.60836 136.187 6.73105 136.584 6.95913C136.981 7.18722 137.313 7.5131 137.548 7.90574C137.912 8.71374 138.06 9.60174 137.977 10.4837V15.8757H136.585V10.4837C136.642 9.87002 136.556 9.25143 136.333 8.67674C136.194 8.40032 135.983 8.16639 135.722 7.99943C135.462 7.83247 135.161 7.73864 134.852 7.72774C134.501 7.751 134.161 7.85553 133.857 8.03308C133.554 8.21063 133.296 8.45633 133.104 8.75074C132.675 9.41827 132.492 10.2139 132.585 11.0017V15.8757H131.104V10.1277C131.125 9.61755 131.023 9.10978 130.808 8.64674C130.655 8.38768 130.439 8.17164 130.18 8.01879C129.92 7.86595 129.627 7.7813 129.326 7.77274C129.005 7.79574 128.692 7.88692 128.408 8.0402C128.125 8.19348 127.877 8.40536 127.682 8.66174C127.268 9.26478 127.075 9.99184 127.134 10.7207V15.8757H125.771V6.82474H127.03ZM141.873 15.8757H140.51V6.82574H141.873V15.8757ZM141.873 5.25474H140.391V3.66874H141.873V5.25474ZM144.732 15.8757V3.66874H146.08V15.8747L144.732 15.8757ZM62.964 15.8757V3.66874H64.312V15.8747L62.964 15.8757ZM67.082 15.8757V3.66874H68.43V15.8747L67.082 15.8757ZM153.101 15.8757L151.768 15.9797C149.798 15.9797 149.19 14.8237 149.19 13.0167V7.86174H147.591V6.75074H149.19V4.49874L150.583 4.35074V6.75074H152.597V7.84674H150.583V13.3127C150.583 14.3647 150.894 14.9127 152.064 14.9127H153.131L153.101 15.8757ZM155.308 11.2687C155.285 10.4893 155.437 9.71461 155.753 9.00174C155.94 8.61079 156.234 8.28086 156.601 8.05023C156.968 7.81961 157.393 7.69773 157.826 7.69874C158.219 7.70044 158.605 7.80022 158.949 7.98901C159.293 8.1778 159.585 8.44961 159.797 8.77974C160.222 9.53788 160.422 10.4011 160.374 11.2687C160.415 12.073 160.262 12.8753 159.93 13.6087C159.753 13.9936 159.473 14.322 159.121 14.5577C158.769 14.7933 158.359 14.927 157.936 14.9438C157.513 14.9607 157.093 14.8602 156.724 14.6533C156.354 14.4464 156.049 14.1413 155.842 13.7717C155.459 12.9946 155.276 12.1344 155.308 11.2687ZM153.827 11.2687C153.827 13.6537 155.027 16.0387 157.738 16.0387C158.334 16.0296 158.922 15.8965 159.463 15.6479C160.005 15.3994 160.489 15.0408 160.885 14.5949C161.28 14.1491 161.579 13.6258 161.761 13.0583C161.944 12.4908 162.006 11.8916 161.944 11.2987C161.944 8.91374 160.611 6.60274 157.96 6.60274C155.308 6.60274 153.797 8.76474 153.797 11.2687H153.827ZM175.75 5.12174C175.751 5.48321 175.645 5.83682 175.444 6.13758C175.243 6.43834 174.958 6.67266 174.624 6.81074C174.392 6.91731 174.139 6.97248 173.883 6.97248C173.628 6.97248 173.375 6.91731 173.143 6.81074C172.809 6.67227 172.524 6.43771 172.323 6.13683C172.123 5.83594 172.016 5.48229 172.017 5.12074C172.015 4.87621 172.065 4.63408 172.165 4.41074C172.349 3.96774 172.7 3.61574 173.143 3.43274C173.375 3.32624 173.628 3.2711 173.883 3.2711C174.139 3.2711 174.392 3.32624 174.624 3.43274C175.064 3.61974 175.414 3.97074 175.602 4.41074C175.702 4.63374 175.752 4.87774 175.75 5.12174ZM175.469 5.12174C175.466 4.91357 175.426 4.7076 175.35 4.51374C175.187 4.13836 174.883 3.84238 174.503 3.69C174.123 3.53762 173.698 3.54112 173.321 3.69974C173.135 3.7763 172.964 3.88646 172.817 4.02474C172.682 4.16885 172.572 4.33444 172.491 4.51474C172.411 4.70713 172.37 4.91341 172.37 5.12174C172.37 5.33008 172.411 5.53636 172.491 5.72874C172.562 5.92254 172.673 6.09945 172.816 6.24819C172.959 6.39694 173.131 6.51428 173.322 6.59274C173.513 6.67073 173.719 6.70791 173.925 6.70188C174.132 6.69585 174.335 6.64676 174.521 6.55774C174.706 6.48074 174.873 6.36474 175.009 6.21774C175.152 6.0771 175.268 5.91091 175.35 5.72774C175.452 5.53974 175.517 5.33374 175.543 5.12174H175.469ZM174.387 6.18774L173.735 5.31374H173.513V6.18774H173.143V4.02474H173.913C174.126 4.01574 174.336 4.06774 174.521 4.17374C174.582 4.23297 174.629 4.30465 174.66 4.38388C174.69 4.46311 174.703 4.548 174.698 4.63274C174.707 4.79 174.654 4.94461 174.55 5.06274C174.438 5.17273 174.291 5.24057 174.135 5.25474L174.846 6.14374L174.387 6.18774ZM174.387 4.70674C174.402 4.65345 174.402 4.59704 174.387 4.54374C174.381 4.52076 174.37 4.49951 174.354 4.48174C174.339 4.46366 174.32 4.44929 174.298 4.43974H173.602V5.06174H173.943C174.269 5.06174 174.432 4.92874 174.432 4.67674L174.387 4.70674Z" fill="white"/>
</g>
<defs>
<clipPath id="clip0_864_3149">
<rect width="176" height="20" fill="white" transform="translate(0.25 0.46875)"/>
</clipPath>
</defs>
</svg>
