<svg width="161" height="21" viewBox="0 0 161 21" fill="none" xmlns="http://www.w3.org/2000/svg">
<g clip-path="url(#clip0_864_3121)">
<mask id="mask0_864_3121" style="mask-type:luminance" maskUnits="userSpaceOnUse" x="0" y="0" width="161" height="21">
<path d="M0.75 0.568726H160.75V20.3707H0.75V0.568726Z" fill="white"/>
</mask>
<g mask="url(#mask0_864_3121)">
<path d="M6.532 9.59772C6.453 9.51772 6.374 9.43873 6.295 9.43873C6.215 9.43873 6.136 9.35972 5.978 9.35972C5.898 9.35972 5.819 9.43972 5.74 9.43972C5.66 9.51872 5.582 9.59773 5.582 9.67673L0.829 19.2607C0.75 19.4197 0.75 19.4987 0.75 19.5787C0.75 19.6587 0.75 19.7367 0.83 19.8167L1.067 20.0537C1.146 20.1337 1.225 20.1337 1.384 20.1337H8.116C8.196 20.1337 8.354 20.1337 8.433 20.0537L8.671 19.8167C10.017 16.8857 9.067 12.2917 6.532 9.59873V9.59772ZM10.097 0.884726C8.89864 2.73657 8.18985 4.86226 8.037 7.06273C7.879 9.28073 8.354 11.4197 9.304 13.3997L12.552 19.8157L12.79 20.0527C12.869 20.1327 12.948 20.1327 13.106 20.1327H19.839C19.919 20.1327 19.998 20.1327 20.077 20.0527C20.156 19.9737 20.235 19.9737 20.235 19.8157C20.315 19.7357 20.315 19.6567 20.315 19.5777C20.315 19.4977 20.315 19.4197 20.235 19.3397L11.047 0.884726C10.967 0.804726 10.967 0.726726 10.809 0.646726C10.651 0.568726 10.651 0.568726 10.572 0.568726C10.492 0.568726 10.334 0.568726 10.255 0.648726C10.175 0.727726 10.175 0.805726 10.097 0.884726ZM151.562 11.1027L156.393 20.1327H160.75V4.05173H157.344V14.4287L156.077 11.4187L152.195 4.05173H146.809V20.1317H150.215V7.85373L151.562 11.1027ZM124.79 4.05273H121.067V20.1327H124.79V4.05173V4.05273ZM116.71 15.3797C116.71 12.5287 115.205 11.2607 111.007 10.3097C108.71 9.83472 108.077 9.28073 108.077 8.56773C108.077 7.61773 108.948 7.22173 110.453 7.22173C112.354 7.22173 114.176 7.77573 115.918 8.56773V4.92473C114.255 4.13273 112.433 3.81473 110.611 3.81473C106.413 3.81473 104.275 5.63673 104.275 8.56773C104.275 10.9437 105.384 12.8447 109.661 13.6377C112.275 14.1917 112.75 14.5877 112.75 15.4587C112.75 16.3297 112.195 16.8057 110.374 16.8057C108.156 16.7257 106.017 16.1717 104.116 15.1417V19.0237C105.384 19.6567 107.126 20.3697 110.374 20.3697C114.888 20.3697 116.71 18.3897 116.71 15.3797ZM101.106 15.3797C101.106 12.5287 99.601 11.2607 95.403 10.3097C93.106 9.83472 92.473 9.28073 92.473 8.56773C92.473 7.61773 93.344 7.22173 94.849 7.22173C96.75 7.22173 98.572 7.77573 100.314 8.56773V4.92473C98.651 4.13273 96.829 3.81473 95.007 3.81473C90.809 3.81473 88.671 5.63673 88.671 8.56773C88.671 10.9437 89.78 12.8447 94.136 13.6377C96.75 14.1917 97.226 14.5877 97.226 15.4587C97.226 16.3297 96.671 16.8057 94.849 16.8057C92.631 16.7257 90.493 16.1717 88.592 15.1417V19.0237C89.859 19.6567 91.602 20.3697 94.849 20.3697C99.285 20.3697 101.106 18.3897 101.106 15.3797ZM63.245 16.6467V4.05273H59.443V20.1327H67.126L68.314 16.6467H63.245ZM52.156 20.1317V7.53873H56.592V4.05273H44.235V7.53873H48.433V20.1327L52.156 20.1317ZM38.69 4.05273H33.7L28.077 20.1327H32.433L33.225 17.4387C35.205 17.9937 37.265 17.9937 39.245 17.4387L40.037 20.1317H44.314L38.691 4.05273H38.69ZM36.236 14.5087C35.523 14.5087 34.81 14.4287 34.176 14.1917L36.236 7.14173L38.296 14.1917C37.662 14.4287 36.949 14.5087 36.236 14.5087ZM80.512 4.05273H75.522L69.898 20.1327H74.176L74.968 17.4387C76.948 17.9937 79.008 17.9937 80.988 17.4387L81.78 20.1317H86.057L80.512 4.05273ZM78.057 14.5087C77.344 14.5087 76.631 14.4287 75.997 14.1917L78.057 7.14173L80.117 14.1917C79.4518 14.4071 78.7562 14.5141 78.057 14.5087ZM138.334 4.05273H133.344L127.72 20.1327H131.997L132.79 17.4387C134.758 17.9931 136.841 17.9931 138.809 17.4387L139.601 20.1317H143.879L138.334 4.05273ZM135.879 14.5087C135.166 14.5087 134.453 14.4287 133.819 14.1917L135.879 7.14173L137.938 14.1917C137.304 14.4287 136.592 14.5087 135.879 14.5087Z" fill="white"/>
</g>
</g>
<defs>
<clipPath id="clip0_864_3121">
<rect width="160" height="20" fill="white" transform="translate(0.75 0.46875)"/>
</clipPath>
</defs>
</svg>
