<svg width="109" height="31" viewBox="0 0 109 31" fill="none" xmlns="http://www.w3.org/2000/svg">
<g clip-path="url(#clip0_864_3137)">
<mask id="mask0_864_3137" style="mask-type:luminance" maskUnits="userSpaceOnUse" x="0" y="0" width="108" height="31">
<path d="M0.739258 0.46875H107.761V30.4688H0.739258V0.46875Z" fill="white"/>
</mask>
<g mask="url(#mask0_864_3137)">
<path fill-rule="evenodd" clip-rule="evenodd" d="M45.1493 25.3288C44.8963 25.3288 44.3913 25.4128 43.8013 25.4128C41.9473 25.4128 41.2723 24.4857 41.2723 23.3897V15.6388H45.0653C45.3173 15.6388 45.4863 15.4697 45.4863 15.1327V10.9187C45.4863 10.6667 45.3173 10.4987 45.0653 10.4987H41.2733V5.35575C41.2733 5.18675 41.1883 5.01875 40.9353 5.01875H35.7953C35.5423 5.01875 35.4583 5.10275 35.4583 5.35575V10.7487C35.4583 10.7487 32.8463 11.4228 32.6773 11.4228C32.5083 11.5068 32.3403 11.6758 32.3403 11.8438V15.2148C32.3403 15.4678 32.5083 15.7207 32.7613 15.7207H35.4583V23.8107C35.4583 29.8777 39.5033 30.4678 42.2843 30.4678C43.5483 30.4678 45.0643 30.0468 45.3173 29.9618C45.3947 29.9224 45.4595 29.862 45.5042 29.7876C45.5489 29.7131 45.5718 29.6276 45.5703 29.5408V25.7488C45.4863 25.4958 45.3173 25.3277 45.1493 25.3277V25.3288ZM101.947 19.8507C101.947 15.3847 100.177 14.7948 98.3233 14.9628C96.8913 15.0478 95.7113 15.8057 95.7113 15.8057V24.4858C95.7113 24.4858 96.8913 25.3288 98.6613 25.4128C101.188 25.4968 101.947 24.5697 101.947 19.8507ZM107.761 19.5138C107.761 28.0247 105.065 30.4688 100.43 30.4688C96.4703 30.4688 94.3623 28.4457 94.3623 28.4457C94.3623 28.4457 94.2783 29.6258 94.1103 29.7108C94.0253 29.8788 93.9413 29.8787 93.7723 29.8787H90.2333C89.9803 29.8787 89.8123 29.7108 89.8123 29.4578L89.8963 1.98575C89.8963 1.73275 90.0653 1.56475 90.3173 1.56475H95.4573C95.7113 1.56475 95.8793 1.73275 95.8793 1.98475V11.3398C95.8793 11.3398 97.8173 9.99075 100.683 9.99075V9.90675C103.548 9.90675 107.761 11.0028 107.761 19.5138ZM86.8623 10.5808H81.8063C81.5533 10.5808 81.3853 10.7498 81.3853 11.0868V24.5697C81.3853 24.5697 80.0363 25.4967 78.2673 25.4967C76.4973 25.4967 75.9073 24.6537 75.9073 22.7997V11.0028C75.9073 10.7498 75.7393 10.5808 75.4863 10.5808H70.3463C70.0933 10.5808 69.9243 10.7498 69.9243 11.0028V23.6427C69.9243 29.1207 72.8743 30.4688 76.9183 30.4688C80.2893 30.4688 82.9863 28.5308 82.9863 28.5308C82.9863 28.5308 83.0703 29.4577 83.1543 29.6257C83.2393 29.7107 83.4073 29.8787 83.5763 29.8787H86.7783C87.0313 29.8787 87.1993 29.7108 87.1993 29.4578L87.2843 11.0028C87.3683 10.7498 87.1153 10.5808 86.8623 10.5808ZM30.0653 10.4967H24.9253C24.6713 10.4967 24.5033 10.7498 24.5033 11.0028V29.2048C24.5033 29.7108 24.8403 29.8787 25.2613 29.8787H29.8963C30.4023 29.8787 30.4863 29.6258 30.4863 29.2048V11.0028C30.4863 10.7498 30.3173 10.4967 30.0653 10.4967ZM27.5363 2.15375C25.6833 2.15375 24.2503 3.67075 24.2503 5.60875C24.2503 7.54775 25.6833 9.06475 27.5373 9.06475C29.3073 9.06475 30.8233 7.54775 30.8233 5.60875C30.8233 3.67075 29.3903 2.15375 27.5363 2.15375ZM67.0593 1.56375H62.0033C61.7503 1.56375 61.5813 1.73275 61.5813 1.98575V12.0977H53.6613V1.98575C53.6613 1.73275 53.4913 1.56475 53.2393 1.56475H48.0993C47.8463 1.56475 47.6773 1.73275 47.6773 1.98475V29.4587C47.6773 29.7117 47.9303 29.8797 48.0983 29.8797H53.2383C53.4923 29.8797 53.6603 29.7117 53.6603 29.4587V17.6588H61.5823L61.4973 29.4568C61.4973 29.7098 61.6663 29.8778 61.9193 29.8778H67.0593C67.3123 29.8778 67.4803 29.7098 67.4803 29.4568V1.98575C67.4803 1.73275 67.3123 1.56375 67.0593 1.56375ZM21.8913 13.6987V27.9408C21.8913 28.0248 21.8913 28.1938 21.7213 28.2778C21.7213 28.2778 18.6883 30.4688 13.8013 30.4688C7.81726 30.4688 0.739258 28.5308 0.739258 15.8057C0.739258 3.08075 6.89026 0.46875 12.9583 0.46875C18.1833 0.46875 20.2893 1.64875 20.6263 1.90175C20.7113 1.98575 20.7953 2.15375 20.7953 2.23875L19.7843 6.62075C19.7843 6.87275 19.5313 7.12575 19.2783 7.04175C18.4353 6.78875 17.0883 6.19875 14.0533 6.19875C10.5143 6.19875 6.72226 7.21075 6.72226 15.4688C6.72226 23.6427 10.3453 24.6537 12.8743 24.6537C15.0643 24.6537 15.9073 24.4018 15.9073 24.4018V18.6717H12.3683C12.1153 18.6717 11.9473 18.5018 11.9473 18.2498V13.6997C11.9473 13.4457 12.1153 13.2778 12.3683 13.2778H21.3013C21.6383 13.2778 21.8913 13.5307 21.8913 13.6987Z" fill="white"/>
</g>
</g>
<defs>
<clipPath id="clip0_864_3137">
<rect width="108" height="30" fill="white" transform="translate(0.25 0.46875)"/>
</clipPath>
</defs>
</svg>
