<svg width="101" height="41" viewBox="0 0 101 41" fill="none" xmlns="http://www.w3.org/2000/svg">
<g clip-path="url(#clip0_864_3127)">
<mask id="mask0_864_3127" style="mask-type:luminance" maskUnits="userSpaceOnUse" x="1" y="0" width="100" height="41">
<path d="M1.18164 0.46875H100.318V40.4688H1.18164V0.46875Z" fill="white"/>
</mask>
<g mask="url(#mask0_864_3127)">
<path d="M1.18166 0.46875V3.18475H20.4417V0.46875H1.18066H1.18166ZM23.1567 0.46875V3.18475H50.6877C50.6877 3.18475 47.8477 0.46875 44.1447 0.46875H23.1567ZM56.1197 0.46875V3.18475H72.7867L71.7997 0.46875H56.1197ZM84.6397 0.46875L83.6497 3.18475H100.194V0.46875H84.6397ZM1.18166 5.77775V8.49375H20.4417V5.77775H1.18066H1.18166ZM23.1567 5.77775V8.49375H53.8977C53.8977 8.49375 53.5277 6.39375 52.9097 5.77775H23.1567ZM56.1197 5.77775V8.49375H74.6397L73.7757 5.77775H56.1197ZM82.6637 5.77775L81.7987 8.49375H100.194V5.77775H82.6637ZM6.73766 11.0857V13.8018H15.1327V11.0857H6.73766ZM28.7127 11.0857V13.8018H37.1077V11.0857H28.7127ZM45.2557 11.0857V13.8018H53.6507C53.6507 13.8018 54.1447 12.3207 54.1447 11.0857H45.2557ZM61.6757 11.0857V13.8018H76.4897L75.5017 11.0857H61.6757ZM80.9357 11.0857L79.9467 13.8018H94.8857V11.0857H80.9357ZM6.73666 16.3947V19.1108H15.1317V16.3947H6.73766H6.73666ZM28.7117 16.3947V19.1108H50.0697C50.0697 19.1108 51.7977 17.7527 52.4157 16.3947H28.7117ZM61.6747 16.3947V19.1108H70.0697V17.6287L70.5637 19.1108H85.8727L86.4897 17.6287V19.1108H94.8847V16.3947H79.0827L78.2187 18.7407L77.3547 16.3947H61.6747ZM6.73766 21.7038V24.4198H15.1327V21.7038H6.73766ZM28.7127 21.7038V24.4198H52.4167C51.7987 23.0618 50.0707 21.7038 50.0707 21.7038H28.7127ZM61.6757 21.7038V24.4198H70.0707V21.7038H61.6757ZM71.5517 21.7038L72.5397 24.4198H84.0217L85.0087 21.7038H71.5517ZM86.3667 21.7038V24.4198H94.7617V21.7038H86.3667ZM6.73666 27.0117V29.7278H15.1327V27.0117H6.73766H6.73666ZM28.7127 27.0117V29.7278H37.1077V27.0117H28.7127ZM45.2557 27.0117V29.7278H54.1457C54.1457 28.4938 53.6507 27.0117 53.6507 27.0117H45.2557ZM61.6757 27.0117V29.7278H70.0707V27.0117H61.6757ZM73.4037 27.0117L74.3917 29.7278H82.0457L83.0337 27.0117H73.4037ZM86.4907 27.0117V29.7278H94.8857V27.0117H86.4907ZM1.30566 32.4438V35.1598H20.5647V32.4438H1.30566ZM23.2807 32.4438V35.1598H53.0337C53.6507 34.5428 54.0217 32.4438 54.0217 32.4438H23.2807ZM56.2437 32.4438V35.1598H69.9477V32.4438H56.2437ZM75.3797 32.4438L76.3667 35.1598H80.3167L81.3057 32.4438H75.3797ZM86.4897 32.4438V35.1598H100.441V32.4438H86.4897ZM1.30666 37.7528V40.4688H20.5657V37.7528H1.30466H1.30666ZM23.2817 37.7528V40.4688H44.2697C47.9727 40.4688 50.8127 37.7528 50.8127 37.7528H23.2797H23.2817ZM56.2447 37.7528V40.4688H69.9487V37.7528H56.2447ZM77.2317 37.7528L78.2197 40.4688H78.3437L79.3307 37.7528H77.2317ZM86.4917 37.7528V40.4688H100.442V37.7528H86.4917Z" fill="white"/>
</g>
</g>
<defs>
<clipPath id="clip0_864_3127">
<rect width="100" height="40" fill="white" transform="translate(0.75 0.46875)"/>
</clipPath>
</defs>
</svg>
