<svg width="123" height="37" viewBox="0 0 123 37" fill="none" xmlns="http://www.w3.org/2000/svg">
<g clip-path="url(#clip0_864_3143)">
<mask id="mask0_864_3143" style="mask-type:luminance" maskUnits="userSpaceOnUse" x="1" y="0" width="121" height="36">
<path d="M1.04199 0.96875H121.459V35.9688H1.04199V0.96875Z" fill="white"/>
</mask>
<g mask="url(#mask0_864_3143)">
<path fill-rule="evenodd" clip-rule="evenodd" d="M119.688 35.2388C119.271 35.2388 118.958 35.0308 118.646 34.8228C118.333 34.5108 118.229 34.1977 118.229 33.7817C118.229 33.3647 118.438 33.0517 118.646 32.7397C118.958 32.4267 119.271 32.3228 119.688 32.3228C120.104 32.3228 120.417 32.4267 120.729 32.7397C121.042 33.0517 121.146 33.3648 121.146 33.7808C121.146 34.6148 120.521 35.2388 119.688 35.2388ZM119.688 32.0107C118.75 32.0107 117.917 32.8438 117.917 33.7808C117.917 34.7188 118.75 35.5518 119.688 35.5518C120.625 35.5518 121.458 34.8227 121.458 33.7817C121.458 32.7397 120.625 32.0107 119.688 32.0107ZM119.375 33.5728V33.0527H119.688C119.896 33.0527 120.104 33.1557 120.104 33.3647C120.104 33.5727 119.896 33.6768 119.688 33.6768H119.375V33.5728ZM120.417 33.3647C120.417 32.9477 120.104 32.7397 119.688 32.7397H118.958V34.7188H119.271V33.8857H119.479L119.896 34.7188H120.313L119.792 33.8857C120.208 33.7807 120.417 33.5727 120.417 33.3647ZM109.375 8.15575C109.896 8.15575 110.313 8.05175 110.729 7.94775C111.146 7.73975 111.563 7.53075 111.875 7.21875C112.188 6.90575 112.5 6.48875 112.708 6.07275C112.917 5.65575 113.021 5.13575 113.021 4.71875C113.021 4.19875 112.917 3.78075 112.708 3.36475C112.5 2.94775 112.292 2.53175 111.875 2.21875C111.458 1.90575 111.146 1.59375 110.729 1.48875C110.313 1.07275 109.792 0.96875 109.375 0.96875C108.438 0.96875 107.5 1.38575 106.875 2.01075C106.219 2.67891 105.846 3.57436 105.833 4.51075C105.833 5.44775 106.25 6.38575 106.875 7.01075C107.186 7.36889 107.57 7.65642 108.001 7.85407C108.432 8.05171 108.901 8.15491 109.375 8.15675V8.15575ZM99.688 11.2808V16.5938H106.354V35.2397H112.292V16.5938H118.958V11.2808H99.688ZM47.708 8.15675C48.229 8.15675 48.646 8.05175 49.063 7.84375C49.479 7.63575 49.896 7.42675 50.208 7.01075C50.521 6.69775 50.833 6.28075 50.938 5.86475C51.146 5.44775 51.25 4.92675 51.25 4.51075C51.25 4.09375 51.25 3.67675 51.042 3.15675C50.833 2.73975 50.625 2.32275 50.312 2.01075C49.9754 1.67562 49.5892 1.39432 49.167 1.17675C48.646 1.07275 48.229 0.96875 47.708 0.96875C46.771 0.96875 45.833 1.38575 45.208 2.01075C44.5521 2.67901 44.1792 3.57448 44.167 4.51075C44.167 5.44775 44.583 6.38575 45.208 7.01075C45.5189 7.36894 45.9029 7.6565 46.334 7.85416C46.7652 8.05181 47.2337 8.15498 47.708 8.15675ZM38.021 16.5938H44.791V35.2397H50.729V16.5938H57.396V11.2808H38.02L38.021 16.5938ZM89.583 35.2397H95.521V11.2808H89.583V35.2397ZM77.5 24.5088C77.5 27.7388 75.73 30.9678 71.98 30.9678C68.125 30.9678 67.5 27.4258 67.5 24.6138V11.2808H61.563V26.2808C61.563 31.1768 64.167 35.9688 70.313 35.9688C73.854 35.9688 76.667 33.7807 77.708 31.3857H77.813V35.2397H83.438V11.2808H77.5V24.5107V24.5088ZM26.25 10.6567C22.708 10.6567 19.896 12.8448 18.854 15.2408H18.75V11.2817H13.125V35.2407H19.063V22.1147C19.063 18.8847 20.833 15.6558 24.583 15.6558C28.438 15.6558 29.063 19.1977 29.063 22.0107V35.2388H35V20.3438C35 15.4478 32.5 10.6567 26.25 10.6567ZM1.04199 35.2407H6.97899V11.2808H1.04199V35.2407Z" fill="white"/>
</g>
</g>
<defs>
<clipPath id="clip0_864_3143">
<rect width="122" height="36" fill="white" transform="translate(0.25 0.46875)"/>
</clipPath>
</defs>
</svg>
